{"title":"YG Ft. Lil Wayne, Rich Homie Quan, Meek Mill &amp; Nicki Minaj -","uid":9775339,"size":38377268,"categoryP":"video","categoryS":"music_videos","magnet":"?xt=urn:btih:752b0b429308a1f0b8df067398ee292923a17cf2&amp;dn=YG+Ft.+Lil+Wayne%2C+Rich+Homie+Quan%2C+Meek+Mill+%26amp%3B+Nicki+Minaj+-&amp;tr=udp%3A%2F%2Ftracker.openbittorrent.com%3A80&amp;tr=udp%3A%2F%2Fopen.demonii.com%3A1337&amp;tr=udp%3A%2F%2Ftracker.coppersurfer.tk%3A6969&amp;tr=udp%3A%2F%2Fexodus.desync.com%3A6969","seeders":2,"leechers":0,"uploader":"Sbyky","files":1,"time":1395023577,"description":"\n\nGeneral\nComplete name                            : YG Ft. Lil Wayne, Rich Homie Quan, Meek Mill &amp; Nicki Minaj - My Nigga [Remix] [Explicit] 720p [Sbyky].MP4\nFormat                                   : MPEG-4\nFormat profile                           : Base Media\nCodec ID                                 : isom\nFile size                                : 36.6 MiB\nDuration                                 : 4mn 13s\nOverall bit rate mode                    : Variable\nOverall bit rate                         : 1 210 Kbps\nEncoded date                             : UTC 2014-02-24 18:31:57\nTagged date                              : UTC 2014-02-24 18:31:57\n\nVideo\nID                                       : 1\nFormat                                   : AVC\nFormat/Info                              : Advanced Video Codec\nFormat profile                           : &lt;a class=&quot;__cf_email__&quot; href=&quot;/cdn-cgi/l/email-protection&quot; data-cfemail=&quot;226f434b4c626e110c13&quot;&gt;[email&amp;#160;protected]&lt;/a&gt;&lt;script cf-hash='f9e31' type=&quot;text/javascript&quot;&gt;\n/* &lt;![CDATA[ */!function(){try{var t=&quot;currentScript&quot;in document?document.currentScript:function(){for(var t=document.getElementsByTagName(&quot;script&quot;),e=t.length;e--;)if(t[e].getAttribute(&quot;cf-hash&quot;))return t[e]}();if(t&amp;&amp;t.previousSibling){var e,r,n,i,c=t.previousSibling,a=c.getAttribute(&quot;data-cfemail&quot;);if(a){for(e=&quot;&quot;,r=parseInt(a.substr(0,2),16),n=2;a.length-n;n+=2)i=parseInt(a.substr(n,2),16)^r,e+=String.fromCharCode(i);e=document.createTextNode(e),c.parentNode.replaceChild(e,c)}}}catch(u){}}();/* ]]&gt; */&lt;/script&gt;\nFormat settings, CABAC                   : Yes\nFormat settings, ReFrames                : 3 frames\nCodec ID                                 : avc1\nCodec ID/Info                            : Advanced Video Coding\nDuration                                 : 4mn 13s\nBit rate                                 : 1 081 Kbps\nWidth                                    : 1 280 pixels\nHeight                                   : 720 pixels\nDisplay aspect ratio                     : 16:9\nFrame rate mode                          : Variable\nFrame rate                               : 23.976 fps\nMinimum frame rate                       : 23.974 fps\nMaximum frame rate                       : 957.447 fps\nColor space                              : YUV\nChroma subsampling                       : 4:2:0\nBit depth                                : 8 bits\nScan type                                : Progressive\nBits/(Pixel*Frame)                       : 0.049\nStream size                              : 32.7 MiB (89%)\nEncoded date                             : UTC 2014-02-24 18:31:57\nTagged date                              : UTC 2014-02-24 18:31:57\n\nAudio\nID                                       : 2\nFormat                                   : AAC\nFormat/Info                              : Advanced Audio Codec\nFormat profile                           : LC\nCodec ID                                 : 40\nDuration                                 : 4mn 13s\nBit rate mode                            : Variable\nBit rate                                 : 126 Kbps\nChannel(s)                               : 2 channels\nChannel positions                        : Front: L R\nSampling rate                            : 44.1 KHz\nCompression mode                         : Lossy\nStream size                              : 3.80 MiB (10%)\nEncoded date                             : UTC 2014-02-24 18:31:36\nTagged date                              : UTC 2014-02-24 18:31:36\n\nShared By Sbyky\n","torrent":{"xt":"urn:btih:752b0b429308a1f0b8df067398ee292923a17cf2","amp;dn":"YG+Ft.+Lil+Wayne%2C+Rich+Homie+Quan%2C+Meek+Mill+%26amp%3B+Nicki+Minaj+-","amp;tr":["udp%3A%2F%2Ftracker.openbittorrent.com%3A80","udp%3A%2F%2Fopen.demonii.com%3A1337","udp%3A%2F%2Ftracker.coppersurfer.tk%3A6969","udp%3A%2F%2Fexodus.desync.com%3A6969"],"infoHash":"752b0b429308a1f0b8df067398ee292923a17cf2","infoHashBuffer":{"type":"Buffer","data":[117,43,11,66,147,8,161,240,184,223,6,115,152,238,41,41,35,161,124,242]},"announce":[],"urlList":[]}}